<svg xmlns="http://www.w3.org/2000/svg" width="1500" height="680" viewBox="0 0 1500 680">
  <style>
    .bg { fill: #ede9e4; }
    .title { fill: #2d2a27; font-family: -apple-system, BlinkMacSystemFont, 'Segoe UI', Helvetica, Arial, sans-serif; font-weight: 700; font-size: 28px; }
    .subtitle { fill: #6a6560; font-family: 'SF Mono', 'Fira Code', 'Fira Mono', 'Roboto Mono', 'Courier New', monospace; font-size: 14px; }
    .separator { stroke: #c5c0ba; }
    .grid { stroke: #d5d0ca; stroke-width: 0.8; }
    .axis { stroke: #2d2a27; stroke-width: 1.2; }
    .tick-label { fill: #6a6560; font-family: 'SF Mono', 'Fira Code', 'Fira Mono', 'Roboto Mono', 'Courier New', monospace; font-size: 13px; }
    .axis-label { fill: #6a6560; font-family: 'SF Mono', 'Fira Code', 'Fira Mono', 'Roboto Mono', 'Courier New', monospace; font-size: 13px; }
    .square-marker { fill: #d4b0b3; fill-opacity: 0.45; stroke: #a07578; stroke-width: 2; }
    .bonsai-fill { fill: #2d2a27; }
    .bonsai-label { fill: #2d2a27; font-family: -apple-system, BlinkMacSystemFont, 'Segoe UI', Helvetica, Arial, sans-serif; font-weight: 700; font-size: 14px; }
    .model-label { fill: #8a7072; font-family: -apple-system, BlinkMacSystemFont, 'Segoe UI', Helvetica, Arial, sans-serif; font-size: 12px; }
    .prior-line { stroke: #c0a8ab; stroke-width: 2; stroke-dasharray: 8 5; fill: none; }
    .bonsai-line { stroke: #2d2a27; stroke-width: 2.5; stroke-dasharray: 8 5; fill: none; }

    @media (prefers-color-scheme: dark) {
      .bg { fill: #1e1c1b; }
      .title { fill: #e8e4e0; }
      .subtitle { fill: #a09890; }
      .separator { stroke: #3a3634; }
      .grid { stroke: #2e2b29; }
      .axis { stroke: #a09890; }
      .tick-label { fill: #a09890; }
      .axis-label { fill: #a09890; }
      .square-marker { fill: #d4b0b3; fill-opacity: 0.35; stroke: #a07578; }
      .bonsai-fill { fill: #e8e4e0; }
      .bonsai-label { fill: #e8e4e0; }
      .model-label { fill: #b89498; }
      .prior-line { stroke: #7a6568; }
      .bonsai-line { stroke: #e8e4e0; }
    }
  </style>

  <defs>
    <symbol id="bonsai-icon" viewBox="0 0 24 14.6035">
      <path d="M15.1304 6.25864H12L14.087 10.4311L6.78261 14.6035H16.1739L20.3478 10.4311L15.1304 6.25864Z"/>
      <path d="M16.7826 6.25866H24V8.34488H19.4022L16.7826 6.25866Z"/>
      <path d="M0 6.25866H10.837L11.8804 8.34488H0V6.25866Z"/>
      <path d="M5.21739 3.12933H20.8696V5.21555H5.21739V3.12933Z"/>
      <path d="M10.4348 0H17.7391V2.08622H10.4348V0Z"/>
    </symbol>
  </defs>

  <!-- Background -->
  <rect width="1500" height="680" class="bg" />

  <!-- Title and subtitle -->
  <text x="68" y="48" class="title">Frontier efficiency</text>
  <text x="68" y="72" class="subtitle">Average score (IFEval, GSM8K, HumanEval+, BFCL, MuSR, MMLU-Redux)</text>

  <!-- Separator line below subtitle -->
  <line x1="68" y1="85" x2="1440" y2="85" class="separator" stroke-width="1" />

  <!--
    Plot area: left=130, right=1430, top=115, bottom=570
    plotWidth=1300, plotHeight=455
    xMin=0.15, xMax=25 (log scale)
    yMin=35, yMax=85

    pixelX(v) = 130 + (ln(v) + 1.8971) / 5.1160 * 1300
    pixelY(v) = 570 - (v - 35) * 9.1

    X ticks:
    0.25 → 260    0.5 → 436    1 → 612    2 → 788
    4 → 964       8 → 1141     16 → 1317

    Y ticks:
    40 → 525    50 → 434    60 → 343    70 → 252    80 → 161
  -->

  <!-- Vertical grid lines -->
  <line x1="260" y1="115" x2="260" y2="570" class="grid" />
  <line x1="436" y1="115" x2="436" y2="570" class="grid" />
  <line x1="612" y1="115" x2="612" y2="570" class="grid" />
  <line x1="788" y1="115" x2="788" y2="570" class="grid" />
  <line x1="964" y1="115" x2="964" y2="570" class="grid" />
  <line x1="1141" y1="115" x2="1141" y2="570" class="grid" />
  <line x1="1317" y1="115" x2="1317" y2="570" class="grid" />

  <!-- Axes -->
  <line x1="130" y1="570" x2="1430" y2="570" class="axis" />
  <line x1="130" y1="115" x2="130" y2="570" class="axis" />

  <!-- Y-axis tick labels -->
  <text x="118" y="529" text-anchor="end" class="tick-label">40</text>
  <text x="118" y="438" text-anchor="end" class="tick-label">50</text>
  <text x="118" y="347" text-anchor="end" class="tick-label">60</text>
  <text x="118" y="256" text-anchor="end" class="tick-label">70</text>
  <text x="118" y="165" text-anchor="end" class="tick-label">80</text>

  <!-- Y-axis small ticks -->
  <line x1="125" y1="525" x2="130" y2="525" class="axis" />
  <line x1="125" y1="434" x2="130" y2="434" class="axis" />
  <line x1="125" y1="343" x2="130" y2="343" class="axis" />
  <line x1="125" y1="252" x2="130" y2="252" class="axis" />
  <line x1="125" y1="161" x2="130" y2="161" class="axis" />

  <!-- X-axis tick labels -->
  <text x="260" y="595" text-anchor="middle" class="tick-label">0.25 GB</text>
  <text x="436" y="595" text-anchor="middle" class="tick-label">0.5 GB</text>
  <text x="612" y="595" text-anchor="middle" class="tick-label">1 GB</text>
  <text x="788" y="595" text-anchor="middle" class="tick-label">2 GB</text>
  <text x="964" y="595" text-anchor="middle" class="tick-label">4 GB</text>
  <text x="1141" y="595" text-anchor="middle" class="tick-label">8 GB</text>
  <text x="1317" y="595" text-anchor="middle" class="tick-label">16 GB</text>

  <!-- X-axis small ticks -->
  <line x1="260" y1="570" x2="260" y2="575" class="axis" />
  <line x1="436" y1="570" x2="436" y2="575" class="axis" />
  <line x1="612" y1="570" x2="612" y2="575" class="axis" />
  <line x1="788" y1="570" x2="788" y2="575" class="axis" />
  <line x1="964" y1="570" x2="964" y2="575" class="axis" />
  <line x1="1141" y1="570" x2="1141" y2="575" class="axis" />
  <line x1="1317" y1="570" x2="1317" y2="575" class="axis" />

  <!-- Axis labels -->
  <text x="730" y="635" text-anchor="middle" class="axis-label">Model size in GB (log scale)</text>
  <text x="52" y="343" text-anchor="middle" class="axis-label" transform="rotate(-90, 52, 343)">Average benchmark score</text>

  <!-- Prior Pareto frontier - dense polyline sampled from score = -3.773*(ln s)^2 + 23.35*(ln s) + 43.58 -->
  <!-- Concave-down sqrt-like curve, passes through/near all Qwen frontier points -->
  <path d="M 522 572 L 556 541 L 612 492 L 637 472 L 658 454 L 688 431 L 715 412 L 750 386 L 788 361 L 818 343 L 845 326 L 868 313 L 891 300 L 908 291 L 923 283 L 944 273 L 964 263 L 993 251 L 1021 239 L 1045 230 L 1067 221 L 1087 215 L 1107 209 L 1124 204 L 1141 199 L 1169 192 L 1197 185 L 1221 180 L 1244 176 L 1263 173 L 1283 170 L 1300 168 L 1317 167 L 1332 166 L 1347 165 L 1360 164 L 1373 164"
        class="prior-line" />

  <!-- Bonsai frontier - straight line through Bonsai points, extended both ends -->
  <path d="M 195 470 L 760 189" class="bonsai-line" />

  <!-- Other model squares (dusty rose, 12x12, centered on data point) -->
  <!-- (1.2, 47.7) → (658, 454) -->
  <rect x="652" y="448" width="12" height="12" rx="1" class="square-marker" />
  <!-- (2.0, 45.6) → (788, 474) -->
  <rect x="782" y="468" width="12" height="12" rx="1" class="square-marker" />
  <!-- (2.4, 46.7) → (835, 464) -->
  <rect x="829" y="458" width="12" height="12" rx="1" class="square-marker" />
  <!-- (2.0, 39.8) → (788, 526) -->
  <rect x="782" y="520" width="12" height="12" rx="1" class="square-marker" />
  <!-- (3.4, 62.2) → (923, 323) -->
  <rect x="917" y="317" width="12" height="12" rx="1" class="square-marker" />
  <!-- (6.0, 73.3) → (1067, 222) -->
  <rect x="1061" y="216" width="12" height="12" rx="1" class="square-marker" />
  <!-- (6.0, 64.4) → (1067, 303) -->
  <rect x="1061" y="297" width="12" height="12" rx="1" class="square-marker" />
  <!-- (8.0, 77.1) → (1141, 187) -->
  <rect x="1135" y="181" width="12" height="12" rx="1" class="square-marker" />
  <!-- (8.0, 67.9) → (1141, 271) -->
  <rect x="1135" y="265" width="12" height="12" rx="1" class="square-marker" />
  <!-- (16.0, 79.3) → (1317, 167) -->
  <rect x="1311" y="161" width="12" height="12" rx="1" class="square-marker" />
  <!-- (14.0, 70.9) → (1282, 243) -->
  <rect x="1276" y="237" width="12" height="12" rx="1" class="square-marker" />
  <!-- (16.0, 73.1) → (1317, 223) -->
  <rect x="1311" y="217" width="12" height="12" rx="1" class="square-marker" />
  <!-- (12.0, 61.2) → (1243, 332) -->
  <rect x="1237" y="326" width="12" height="12" rx="1" class="square-marker" />
  <!-- (16.0, 71.0) → (1317, 242) -->
  <rect x="1311" y="236" width="12" height="12" rx="1" class="square-marker" />
  <!-- (16.0, 69.6) → (1317, 255) -->
  <rect x="1311" y="249" width="12" height="12" rx="1" class="square-marker" />
  <!-- (16.0, 67.1) → (1317, 278) -->
  <rect x="1311" y="272" width="12" height="12" rx="1" class="square-marker" />
  <!-- (16.0, 65.4) → (1317, 293) -->
  <rect x="1311" y="287" width="12" height="12" rx="1" class="square-marker" />
  <!-- (18.0, 65.7) → (1347, 291) -->
  <rect x="1341" y="285" width="12" height="12" rx="1" class="square-marker" />
  <!-- (14.0, 55.1) → (1282, 387) -->
  <rect x="1276" y="381" width="12" height="12" rx="1" class="square-marker" />
  <!-- (16.0, 56.6) → (1317, 374) -->
  <rect x="1311" y="368" width="12" height="12" rx="1" class="square-marker" />

  <!-- Bonsai model icons (22x14, centered on point) -->
  <!-- (0.25, 49.3) → (260, 440) -->
  <use href="#bonsai-icon" x="249" y="433" width="22" height="14" class="bonsai-fill" />
  <!-- (0.575, 61.6) → (472, 328) -->
  <use href="#bonsai-icon" x="461" y="321" width="22" height="14" class="bonsai-fill" />
  <!-- (1.15, 70.5) → (648, 247) -->
  <use href="#bonsai-icon" x="637" y="240" width="22" height="14" class="bonsai-fill" />

  <!-- Bonsai labels (positioned above-left) -->
  <text x="228" y="422" class="bonsai-label">Bonsai 1.7B</text>
  <text x="425" y="310" class="bonsai-label">Bonsai 4B</text>
  <text x="606" y="230" class="bonsai-label">Bonsai 8B</text>

  <!-- Other model labels (muted rose) -->
  <text x="672" y="450" class="model-label">Qwen3 0.6B</text>
  <text x="937" y="316" class="model-label">Qwen3 1.7B</text>
  <text x="1080" y="213" class="model-label">Ministral3 3B</text>
  <text x="1095" y="175" class="model-label">Qwen3 4B</text>
  <text x="1330" y="160" class="model-label">Qwen3 8B</text>
</svg>